Coordinates
version=1
nRows=16
nColumns=40
inDegrees=yes

Units are S.I. units (second, meters, Newtons, ...)
Angles are in degrees.

endheader
time	pelvis_tilt	pelvis_list	pelvis_rotation	pelvis_tx	pelvis_ty	pelvis_tz	hip_flexion_r	hip_adduction_r	hip_rotation_r	knee_angle_r	knee_angle_r_beta	ankle_angle_r	subtalar_angle_r	mtp_angle_r	hip_flexion_l	hip_adduction_l	hip_rotation_l	knee_angle_l	knee_angle_l_beta	ankle_angle_l	subtalar_angle_l	mtp_angle_l	lumbar_extension	lumbar_bending	lumbar_rotation	arm_flex_r	arm_add_r	arm_rot_r	elbow_flex_r	pro_sup_r	wrist_flex_r	wrist_dev_r	arm_flex_l	arm_add_l	arm_rot_l	elbow_flex_l	pro_sup_l	wrist_flex_l	wrist_dev_l
     51.71500000	     -5.98605367	     -4.12095994	     -2.16475995	      1.04396551	      0.92794701	      0.43991300	     23.61348763	     -3.71595951	    -11.62350215	     12.99818140	     12.99818140	      1.19832291	      5.69682552	      5.18862247	      8.36393097	     -7.23245868	    -11.94568796	     17.24510634	     17.24510634	     15.58617196	     -6.28306133	     -3.68862363	     -9.20604051	      4.57105445	      0.90873908	     -4.11146021	    -14.60220801	     -6.03180269	     30.46471950	     46.77587418	      0.00000000	      0.00000000	     15.22424418	    -18.24294950	      4.62800611	     62.40191768	     46.38396467	      0.00000000	      0.00000000
     51.72835714	     -5.91905786	     -3.94267066	     -2.15512257	      1.04541701	      0.92739058	      0.44281744	     23.20653068	     -3.65063237	    -12.16258449	     12.95702687	     12.95702687	      1.37643457	      5.79567816	      4.69524342	      7.51993627	     -7.15515090	    -12.04928201	     16.70521075	     16.70521075	     15.76372901	     -6.09087617	     -3.70547431	     -9.16616438	      4.38959724	      0.91324326	     -4.44053632	    -14.53913629	     -6.15582153	     30.47603977	     46.77041440	      0.00000000	      0.00000000	     14.78453809	    -18.09148106	      4.72583052	     61.77038071	     46.37467540	      0.00000000	      0.00000000
     51.74171429	     -5.84335917	     -3.76347820	     -2.13249224	      1.04708142	      0.92679810	      0.44586030	     22.87704748	     -3.60731144	    -12.47840331	     13.31823635	     13.31823635	      1.62954771	      5.44297829	      3.71334231	      6.67482629	     -7.08359492	    -12.09752176	     16.20083283	     16.20083283	     15.96903121	     -5.93405559	     -3.60584486	     -9.07341434	      4.22496111	      0.94459740	     -4.69874760	    -14.43690829	     -6.24479514	     30.50845562	     46.76023019	      0.00000000	      0.00000000	     14.26962240	    -17.89956598	      4.82593788	     60.98427775	     46.36368600	      0.00000000	      0.00000000
     51.75507143	     -5.77265087	     -3.70196292	     -2.09134541	      1.04891551	      0.92608804	      0.44915527	     22.45930691	     -3.40303034	    -12.57766163	     13.61411439	     13.61411439	      1.21896815	      4.57940481	      0.58365579	      5.92809002	     -7.16780631	    -12.01397118	     15.91416662	     15.91416662	     16.43858242	     -5.86759682	     -3.10550806	     -8.94172997	      4.21365695	      1.21729838	     -5.01399491	    -14.40394710	     -6.36779975	     30.63011304	     46.71218010	      0.00000000	      0.00000000	     14.05798211	    -17.47396253	      4.93462741	     59.59052811	     46.37504327	      0.00000000	      0.00000000
     51.76842857	     -5.68694278	     -3.75457955	     -2.02634097	      1.05085084	      0.92550695	      0.45254899	     22.08048538	     -3.15669016	    -12.78659745	     14.20460250	     14.20460250	      1.84395553	      4.14892855	      0.19341857	      5.24753775	     -7.41995142	    -11.94420929	     15.77591194	     15.77591194	     16.71387750	     -5.84574461	     -3.08462473	     -8.82504934	      4.32307252	      1.30839578	     -5.10841188	    -14.30145819	     -6.35999621	     30.62131786	     46.70882131	      0.00000000	      0.00000000	     13.22216424	    -17.23262236	      5.07739462	     59.25722370	     46.35445431	      0.00000000	      0.00000000
     51.78178571	     -5.45723539	     -3.68418037	     -1.99776867	      1.05288771	      0.92506957	      0.45609469	     21.91092877	     -3.09203623	    -12.60814034	     15.50512302	     15.50512302	      2.61319935	      3.20596241	     -0.62011965	      4.31035914	     -7.52714154	    -12.00261894	     15.46599285	     15.46599285	     17.00805959	     -5.65192161	     -2.79627447	     -8.87164360	      4.27774600	      1.21124646	     -4.81652619	    -14.29467954	     -6.33010585	     30.77210806	     46.69719849	      0.00000000	      0.00000000	     12.49394457	    -17.19961556	      5.13629720	     58.58188975	     46.33910125	      0.00000000	      0.00000000
     51.79514286	     -5.31618968	     -3.77200905	     -1.94967123	      1.05498044	      0.92470262	      0.45977131	     21.53594562	     -2.82368931	    -12.56125334	     16.23736751	     16.23736751	      3.27377195	      2.73068112	     -1.09845988	      3.67166361	     -7.86498270	    -11.94634584	     15.53286932	     15.53286932	     17.21659244	     -5.70963467	     -2.66639251	     -8.77164596	      4.41716960	      1.36722314	     -4.74380591	    -14.13423901	     -6.27925512	     30.81328559	     46.69013645	      0.00000000	      0.00000000	     11.53325514	    -16.86154022	      5.27485505	     58.08378454	     46.31546094	      0.00000000	      0.00000000
     51.80850000	     -5.23145356	     -3.72612348	     -1.89684923	      1.05678518	      0.92417605	      0.46364903	     21.58713059	     -2.64084745	    -11.80568412	     17.52908013	     17.52908013	      3.79415930	      0.94439757	     -2.35662320	      3.29845470	     -8.13651929	    -11.99525714	     15.97901750	     15.97901750	     17.95695051	     -5.46621894	     -1.42721968	     -8.64840063	      4.35684008	      1.14170565	     -4.12668206	    -14.13710368	     -5.82486126	     30.94911637	     46.64010345	      0.00000000	      0.00000000	     10.92465793	    -16.64839681	      4.89290552	     56.40857760	     46.33210032	      0.00000000	      0.00000000
     51.82185714	     -5.02109867	     -3.82938448	     -1.83709630	      1.05866756	      0.92411480	      0.46758019	     21.24534831	     -2.34083161	    -11.55128371	     18.34408000	     18.34408000	      4.24929525	      0.17501568	     -3.18498969	      2.99079286	     -8.64033544	    -12.06379290	     16.82992130	     16.82992130	     18.61903735	     -5.24538210	     -0.16454347	     -8.65512059	      4.50430466	      1.22082407	     -3.61980604	    -14.15441569	     -5.10037593	     31.06849296	     46.56467669	      0.00000000	      0.00000000	     10.20137896	    -16.20962478	      4.38704105	     55.10175247	     46.36558444	      0.00000000	      0.00000000
     51.83521429	     -4.77698119	     -3.93305749	     -1.80329830	      1.06048246	      0.92426138	      0.47158705	     20.82316993	     -2.05342738	    -11.41181454	     19.05678877	     19.05678877	      4.94787377	     -0.09550125	     -3.54713076	      2.66357003	     -9.12160600	    -11.97067407	     17.63110010	     17.63110010	     18.64294285	     -5.59087163	     -0.09790427	     -8.74226753	      4.65601873	      1.37453887	     -3.12802330	    -14.13778368	     -5.00861631	     31.29637960	     46.54946076	      0.00000000	      0.00000000	      9.31490252	    -15.92854530	      4.45711902	     54.53314771	     46.34697983	      0.00000000	      0.00000000
     51.84857143	     -4.79426518	     -4.02966733	     -1.71950523	      1.06192787	      0.92413489	      0.47566440	     20.69076261	     -1.74091528	    -11.24455466	     19.70303749	     19.70303749	      5.54361376	     -0.65074670	     -3.71173131	      3.07176831	     -9.71068555	    -11.71512208	     19.20832738	     19.20832738	     18.70803518	     -6.12057426	     -0.00052926	     -8.47476097	      4.77179998	      1.16389065	     -2.38373637	    -14.04092891	     -4.67457320	     31.71574157	     46.50616899	      0.00000000	      0.00000000	      8.37220234	    -15.70610452	      4.25811209	     53.28019938	     46.34526161	      0.00000000	      0.00000000
     51.86192857	     -4.50127690	     -4.16159016	     -1.63951744	      1.06333377	      0.92467824	      0.47976875	     20.10218693	     -1.39600791	    -11.17797732	     20.11035799	     20.11035799	      6.10705837	     -0.77206785	     -3.87177936	      3.21686859	    -10.33218949	    -11.37133219	     20.89613658	     20.89613658	     18.49025813	     -6.81158809	     -0.08416855	     -8.72436596	      4.90154186	      1.33008029	     -1.63619234	    -14.07345422	     -4.49926729	     32.07076884	     46.48146407	      0.00000000	      0.00000000	      7.61912704	    -15.42837352	      4.18075783	     52.46281623	     46.33781953	      0.00000000	      0.00000000
     51.87528571	     -4.33639241	     -4.26074894	     -1.56921309	      1.06449435	      0.92518062	      0.48389697	     19.55359671	     -1.05877681	    -11.19100600	     20.29054250	     20.29054250	      6.64536372	     -0.78960578	     -3.98741892	      3.77927356	    -10.96424620	    -10.93134436	     23.03678163	     23.03678163	     18.07003435	     -7.75032133	     -0.29268501	     -8.81308577	      4.97051742	      1.39808483	     -0.84277317	    -14.07004670	     -4.34181496	     32.50512031	     46.45575423	      0.00000000	      0.00000000	      6.83767937	    -15.14565511	      4.11618109	     51.54680103	     46.32776154	      0.00000000	      0.00000000
     51.88864286	     -4.26446640	     -4.39771796	     -1.40715229	      1.06538404	      0.92563575	      0.48786393	     19.03591623	     -0.70349738	    -11.38348654	     20.31904271	     20.31904271	      7.06684924	     -0.72534834	     -4.03517049	      4.76510725	    -11.64761209	    -10.17638756	     25.65462061	     25.65462061	     17.46309216	     -8.96412066	     -0.62706036	     -8.80262057	      5.09971166	      1.40109324	      0.02812471	    -14.06436843	     -4.15457790	     33.05035705	     46.42392111	      0.00000000	      0.00000000	      6.06475140	    -14.85821373	      4.00278649	     50.44832432	     46.32044027	      0.00000000	      0.00000000
     51.90200000	     -4.36813200	     -4.42393861	     -1.19924034	      1.06591567	      0.92592101	      0.49152160	     18.71373893	     -0.50683082	    -11.66343218	     20.31749058	     20.31749058	      7.50759724	     -0.48592197	     -3.95030108	      6.16911466	    -12.07419996	     -8.90254712	     28.49901957	     28.49901957	     16.31128024	    -10.97449497	     -1.18329231	     -8.55988297	      5.13247281	      1.14624059	      0.85099234	    -14.14899534	     -3.38133850	     34.06877580	     46.32588110	      0.00000000	      0.00000000	      5.50464665	    -14.26820961	      3.24468302	     48.07787240	     46.36371475	      0.00000000	      0.00000000
     51.91535714	     -4.22146728	     -4.60565938	     -0.98251566	      1.06638293	      0.92650435	      0.49515839	     17.98794459	     -0.11648672	    -12.04893920	     20.06987873	     20.06987873	      7.87037121	     -0.21998378	     -3.97551436	      7.49470262	    -12.74347925	     -7.86946123	     31.69031781	     31.69031781	     15.28199321	    -12.39241555	     -1.56677526	     -8.69591088	      5.30574542	      1.35644394	      1.70101042	    -14.30510842	     -3.15523806	     34.70526795	     46.28795197	      0.00000000	      0.00000000	      4.93608225	    -13.87780075	      3.09459805	     47.16824673	     46.36365507	      0.00000000	      0.00000000
